<mxfile host="app.diagrams.net" modified="2023-07-22T09:02:57.616Z" agent="Mozilla/5.0 (Macintosh; Intel Mac OS X 10_15_7) AppleWebKit/537.36 (KHTML, like Gecko) Chrome/114.0.0.0 Safari/537.36" version="21.6.3" etag="CL-xCMhc2owPkjpLrsP0" type="github">
  <diagram name="Page-1" id="x5xp1XZ7a-2D_bd_AiX4">
    <mxGraphModel>
      <root>
        <mxCell id="0" />
        <mxCell id="1" parent="0" />
      </root>
    </mxGraphModel>
  </diagram>
</mxfile>
